<svg width="32" height="32" viewBox="0 0 32 32" fill="none" xmlns="http://www.w3.org/2000/svg">
  <!-- Eye outline -->
  <path d="M16 8C10 8 5 12 3 16C5 20 10 24 16 24C22 24 27 20 29 16C27 12 22 8 16 8Z" stroke="#059669" stroke-width="2" fill="none"/>
  
  <!-- Eye inner circle -->
  <circle cx="16" cy="16" r="4" stroke="#059669" stroke-width="2" fill="none"/>
  
  <!-- Dashboard grid pattern inside eye -->
  <rect x="14" y="14" width="1" height="1" fill="#059669"/>
  <rect x="16" y="14" width="1" height="1" fill="#059669"/>
  <rect x="18" y="14" width="1" height="1" fill="#059669"/>
  <rect x="14" y="16" width="1" height="1" fill="#059669"/>
  <rect x="16" y="16" width="1" height="1" fill="#059669"/>
  <rect x="18" y="16" width="1" height="1" fill="#059669"/>
  <rect x="14" y="18" width="1" height="1" fill="#059669"/>
  <rect x="16" y="18" width="1" height="1" fill="#059669"/>
  <rect x="18" y="18" width="1" height="1" fill="#059669"/>
  
  <!-- Small accent dots -->
  <circle cx="12" cy="12" r="0.5" fill="#059669"/>
  <circle cx="20" cy="12" r="0.5" fill="#059669"/>
  <circle cx="12" cy="20" r="0.5" fill="#059669"/>
  <circle cx="20" cy="20" r="0.5" fill="#059669"/>
</svg>
